<?xml version="1.0" encoding="UTF-8"?>
<svg id="a" data-name="Layer 1" xmlns="http://www.w3.org/2000/svg" width="520" height="520" viewBox="0 0 520 520">
  <rect width="520" height="520" fill="#202024"/>
  <path d="M381.991,302.191c-1.935-1.837-4.396-1.813-7.083-1.811l-8.395.007c-.243,0-.457-.09-.526-.179-.069-.089-.126-.45-.067-.59.936-2.211,1.277-8.748,1.008-11.59l-.698-7.369c-.759-3.826-1.629-7.501-3.235-10.976l-2.853-6.174c-2.48-4.7-5.279-8.996-8.483-13.233l-4.13-5.462c-.481-.636-.803-.636-.483-1.515,4.818-13.202,7.947-28.944,7.243-43.009-.16-3.199-.053-6.32-1.061-9.245-1.276-3.701-5.468-5.366-8.715-3.373-2.26,1.387-3.351,3.906-3.135,6.507l.703,8.447c.102,1.22.068,2.69-.022,3.973l-.598,8.541-1.489,9.173-.872,3.548c-.284,1.155-.364,2.254-.947,3.437-.145.209-.496-.047-.295-.341l-.224-3.288-.365-11.026c-.021-.638.083-1.01.042-1.731l-.207-3.62-.115-5.195.111-2.378-.116-9.223.128-2.623-.169-10.047-.191-4.191-.228-4.452-1.243-11.74-1.264-5.979-.847-2.498c-.653-1.924-1.294-3.656-2.262-5.423-3.369-6.149-8.981-11.36-16.158-10.514-.182-.171-.521-.419-.633-.316-1.002.926-3.986-.112-9.847,3.787-3.414,2.271-5.994,5.313-8.611,8.46l-1.43,1.72-2.192,2.974-2.787,4.139-4.679,7.375-2.837,4.62-6.697-1.238-9.574-1.564c-1.132-6.293-2.844-12.217-5.534-17.919-.64-1.357-1.557-2.585-2.452-3.694-4.928-6.111-15.02-3.814-19.972,1.949-2.352,2.737-4.348,5.48-6.195,8.537l-3.784,6.265-4.343-.457-13.063-.817c-.409-.026-.909.157-1.189-.143-.149-.159-.322-.442-.468-.797-1.554-3.771-4.956-6.715-9.064-6.831-3.074-.087-5.554.993-7.955,2.64l-6.15,5.511-8.294,1.113-4.32.793-4.474,1.112c-8.044,1.999-16.676,6.561-22.27,12.824-6.358,7.119-9.879,16.144-9.266,25.7.249,3.886.704,7.536,1.946,11.126,1.591,4.599,3.69,8.807,6.577,12.597-3.851,9.824-6.831,19.409-6.598,29.995.292,13.273,4.944,24.415,14.23,33.889l-1.396,9.515-.398,2.77c-.681,4.74,1.655,8.865,6.291,10.05,2.547.651,5.003.002,7.357-1.194,1.958-.994,3.771-1.99,5.418-3.6.433,1.207-.295,1.815-.383,2.675l-1.254,12.205-.069,6.366,1.21,11.519,1.175,5.188c-5.568.164-10.903-1.232-15.538-4.136-2.338-1.465-4.195-3.388-5.194-5.955.216-1.626-.017-3.071-.227-4.701-.836-1.681-1.665-3.725-3.142-4.756-2.559-1.785-5.265-2.208-8.072-.994-5.621,2.43-6.109,10.401-3.821,16.259,1.681,4.303,4.913,7.865,8.696,10.592,2.348,1.693,4.914,3.152,7.674,3.943l5.984,1.716,7.977.916,4.552.014,6.121-.533c2.334,4.433,5.379,8.2,8.767,11.775l3.393,3.17,2.866,2.318,4.238,2.723c4.851,2.775,10.098,4.73,15.755,5.089,5.419.344,10.767-.189,15.724-2.19l5.922-2.39c5.803-2.885,11.113-6.347,16.174-10.372l4.6-3.657,9.904-.101,4.186-.195,2.916-.08,14.514-1.535,4.611-.789,10.567-2.073c7.812,2.53,16.339,4.526,24.598,4.584l1.601.011c4.31.031,8.299-.673,12.445-1.849,10.237-2.902,18.538-8.969,22.12-19.154,2.468-7.019,1.533-13.502-.433-20.446l-1.578-5.573,1.712-3.654,4.467.292,9.092.745c4.637,1.756,9.692-1.078,10.592-5.989.466-2.541-.795-5.051-2.544-6.712ZM279.416,298.961l5.274,1.692,11.541,3.139-4.834,5.857-5.346,6.347-3.558,4.14-7.308,7.896-2.925-2.93-3.429-3.67c-.389-.916-1.223-1.435-1.784-2.189l-4.774-6.42c6.05-4.411,11.668-8.883,17.143-13.862ZM256.504,304.594c-.466-1.121-1.055-1.773-1.602-2.619l-3.657-5.648c.24-1.276,1.028-2.22,1.659-3.28.572-.961.805-2.089,1.618-2.772l10.292,4.121,3.287,1.201c-1.452.813-2.199,1.671-3.277,2.563l-2.236,1.851-6.083,4.583ZM289.464,288.269l6.956-8.931,2.434-3.322,2.476-3.639,1.217-1.678c6.088-8.399,11.333-17.251,16.232-26.427l1.516-2.84,2.819-5.172,2.158,19.083,1.118,5.896c-5.989,10.035-12.341,19.528-19.37,28.721l-1.988,2.264-8.261-1.873-7.309-2.082ZM313.64,203.894l-4.653-5.406-6.962-8.116-2.204-2.631c-.425-.508-1.354-.819-1.465-1.701l5.277,1.16c4.401.968,8.861,2.369,11.949,5.672,2.022,2.162,3.461,4.64,4.22,7.442l.647,5.133-.443,5.543-6.367-7.097ZM318.589,293.164l7.047-9.95,4.267-6.483,3.133,10.719,3.152,10.175-9.968-1.318-8.374-1.542c-.179-.772.382-1.092.743-1.6ZM298.395,169.417l2.451-3.688,3.479-5.235c1.976-2.974,5.779-7.414,8.746-8.861,1.811-.883,3.704-.502,4.67,1.394l1.624,3.189c1.557,3.056,2.409,11.145,2.774,15.497l.456,5.446.04,5.651c-1.208-.462-1.61-1.458-2.437-2.016l-2.288-1.544c-4.488-2.57-9.288-3.911-14.303-4.944l-7.177-1.477,1.966-3.411ZM268.544,181.314l6.365.904c.118.642-.44.837-.681,1.277l-4.291,7.831-.863-6.613c-.147-1.124-.578-2.154-.53-3.399ZM267.396,251.871c1.724-6.712,2.571-13.364,3.339-20.244l.337-3.018.187-3.172.258-5.785,4.516-9.451,8.989-17.171c5.435,3.915,10.186,8.272,14.934,12.779l1.929,1.831,8.694,9.456,6.21,7.277c-2.255,5.511-4.897,10.775-7.591,16.126l-1.461,2.902-3.962,6.972-5.143,8.458c-3.298,5.424-6.723,10.553-10.728,15.506l-6.778,8.382-2.376,2.571-18.993-7.146,2.324-7.575,3.349-11.043,1.967-7.657ZM242.669,160.534l1.574-2.321,2.96-3.453c.91.698,1.39,1.702,1.661,2.748l1.88,7.243-9.693-1.17c.255-1.267.967-2.088,1.618-3.048ZM230.158,183.646l3.45-7.017,5.885.737,12.83,1.725c.558,1.845.48,3.648.575,5.519l.318,6.269.168,7.453c.101,4.454.207,8.765.006,13.252l-.415,9.236-.413,5.588-7.153,15.77-2.855,6.5-2.534,6.244c-.309.762-.902,1.423-.945,2.317l-4.952,13.219-5.761-7.621-3.362-4.068-6.946-7.548-7.372-6.714-4.578-3.46c-.29-.219-.73-.286-.829-.621-.101-.339.015-.677.182-1.075l5.8-13.801,3.394-7.946,4.176-9.411,3.424-7.708,1.692-3.639,6.217-13.201ZM232.113,305.841c2.579,2.138,6.24,2.385,9.433,1.152l3.754,5.421-3.752,2.37c-7.467-1.178-14.548-3.031-21.697-5.19l-7.886-2.382c-9.046-3.06-17.725-6.585-26.384-10.855l2.763-9.665c3.208-11.22,7.267-21.941,11.571-32.941l5.383,4.443,4.908,4.841c4.693,5.056,8.867,10.342,12.983,15.902l6.404,9.429-.726,4.528-.114,3.763c-.103,3.415.608,6.903,3.359,9.184ZM205.614,198.214c2.396-7.764,3.883-15.573,4.761-23.476l10.344.797-4.219,8.943-6.376,13.811-6.575,14.355-2.203,4.99-2.827,6.647c-.333.132-.855-.227-.981-.453-.15-.269-.229-.709-.078-1.122l3.817-10.443,4.335-14.05ZM180.261,191.05l2.085-3.081,2.086-2.824,2.335-3.347,5.501-6.964,3.375-.337c-.56,5.866-1.591,11.51-3.09,17.174l-1.461,5.521c-2.587,9.774-6.123,19.106-9.902,28.478l-3.44,8.531c-4.922-1.635-9.237-4.217-13.352-7.318l-3.006-2.565,2.538-5.432,1.563-3.028,4.394-8.052c1.276-2.338,2.527-4.501,3.969-6.753l6.406-10.003ZM169.473,178.563c.923-.281,1.576-.736,2.784-.712-1.67,2.075-2.959,4.11-4.34,6.308l-5.43,8.641-2.609,4.336-6.374,11.546c-.333.603-.189,1.341-.958,1.725-5.576-14.402,2.454-27.443,16.927-31.844ZM169.43,253.48l-7.319,15.75-3.214,6.399c-3.54-4.612-5.123-9.872-5.708-15.519-.8-7.713.242-14.22,2.831-21.689.882.984,1.998,1.474,3.034,2.185,4.061,2.787,8.14,5.275,12.944,7.068l-2.568,5.807ZM183.227,342.341c-.971-2.031-1.227-4.127-1.459-6.266l-.594-5.475-.086-5.295c-.046-2.834.188-5.517.599-8.344l.747-5.143c.035-.241-.034-.541.165-.699.141-.112.464-.294.773-.164l18.226,7.681,10.596,3.616,9.11,2.816,3.231.9-9.881,5.68-7.5,3.851c-6.314,3.241-12.61,5.874-19.191,8.434l-4.734-1.592ZM221.334,369.498c-3.661.997-9.515,1.153-13.096-.261l-4.495-1.774c-4.077-1.609-10.839-7.286-13.343-11.264,1.091-.38,1.811.014,2.711.295,9.555,2.984,19.183,5.055,29.119,6.234l11.344,1.347c-4.045,2.292-7.914,4.245-12.24,5.423ZM248.301,353.579l-1.954,1.645-3.835-.061-2.607-.138-24.076-2.868-12.362-2.773c.641-.893,1.552-.983,2.309-1.386l3.05-1.624c9.236-4.918,18.263-9.955,27.18-15.434l2.2-1.25c.769-.437,1.865.497,2.678.466l2.964-.113c4.105-.582,6.877-4.377,6.397-8.478-.029-.251.099-.639.233-.709.144-.075.45.039.615.254l3.799,4.958,5.567,6.619,4.869,5.199c-.196.631-.763.827-1.215,1.24l-15.813,14.452ZM280.359,353.807l-9.086.993-4.244.056-2.921.134,4.8-4.422,5.007-5.117,3.522,2.646,7.438,5.005-4.516.705ZM323.368,339.697c-4.899,3.429-10.057,5.958-15.601,8.309-7.701-2.514-14.597-5.919-21.085-10.453-.96-.671-1.978-1.111-2.671-2.182l3.801-4.195,3.597-4.202,3.498-4.059,3.971-4.644,6.981-8.575,2.423-3.01,10.035,1.92,6.704,1.119,15.236,2.279c.446.067.831-.091,1.163.161.309.235,2.504,5.847,3.115,8.276-6.295,7.369-13.279,13.736-21.167,19.256ZM342.279,345.658c-5.19,3.321-11.206,5.001-17.64,4.723,6.721-4.274,12.861-8.753,18.326-14.27l4.7-4.745c1.273,5.652-.628,11.248-5.385,14.293ZM356.899,295.1c-.256,1.448-.258,2.958-.911,4.295l-4.217-.165-3.28-9.866-1.83-5.975-1.704-5.761-1.422-5.596-2.402-11.062-.601-2.221,2.025-4.311,3.689,4.87,3.436,5.443,3.658,6.957c3.229,6.14,4.789,16.432,3.559,23.39Z" fill="#af8b58"/>
</svg>