<?xml version="1.0" encoding="UTF-8"?>
<svg id="a" xmlns="http://www.w3.org/2000/svg" version="1.1" viewBox="0 0 403.1 72">
  <!-- Generator: Adobe Illustrator 30.3.0, SVG Export Plug-In . SVG Version: 2.1.3 Build 182)  -->
  <defs>
    <style>
      .st0 {
        fill: none;
      }

      .st1 {
        fill: #b6b6a1;
      }
    </style>
  </defs>
  <path class="st0" d="M232.1,46.5c-1.6,1.9-3.3,4.3-5.1,7.1-1.2,1.9-4.7,7.3-3.8,7.6,1.6,0,3.2-2.2,4-3.6h0c1.9-3.3,3.5-7.4,4.9-11,.1-.3,0-.4-.2,0h.2Z"/>
  <path class="st0" d="M162,19c-4.5,4.2-9,12.4-11.2,16.8-.7,1.5.5.6,1,0,.4-.4.7-.6,1.2-.9.7-.5,1.1-.9,1.8-1.4,1.3-1.2,2.6-2.6,3.9-3.8.8-.8,1.8-1.9,2.6-2.7.9-.8,1.9-1.9,2.2-3.2.4-1.4.4-3.1.5-4.5h0c.1-2.3-1-1.2-1.9-.3h-.1Z"/>
  <path class="st0" d="M236.8,19c-4.5,4.2-9,12.4-11.2,16.8-.7,1.5.5.6,1,0,.4-.4.7-.6,1.2-.9.7-.5,1.1-.9,1.8-1.4,1.3-1.2,2.6-2.6,3.9-3.8,1.2-1.4,3.1-2.9,4-4.7.4-.9.7-2.1.8-2.9,0-.7.6-1.9.5-2.6h0c.2-2.5-1-1.2-1.9-.3h0v-.2Z"/>
  <path class="st0" d="M60.5,23.2c-2,1.9-4.3,5.1-5.7,7,0,.3-1.7,2.3-.7,2,2.1-1.4,4.1-3.4,5.9-5.1.5-1,.9-2.2,1.4-3.1h0c1-2.4.3-2.1-1-.8h0Z"/>
  <path class="st0" d="M157.2,46.5c-1.6,1.9-3.3,4.3-5.1,7.1-1.2,1.9-4.7,7.3-3.8,7.6,1.6,0,3.2-2.2,4-3.6h0c1.9-3.3,3.5-7.4,4.9-11,.1-.3,0-.4-.2,0h.2Z"/>
  <path class="st0" d="M272.8,10.7c-4,0-7,1.2-8.9,3.5s-2.8,5.3-2.8,8.9v25.9c0,3.6.9,6.5,2.8,8.9,1.9,2.3,4.8,3.5,8.9,3.5s6.9-1.1,8.6-3.4c1.7-2.3,2.6-5.3,2.6-8.9v-2.4h-7.4v2.4c0,3.6-1.3,5.3-3.9,5.3s-3.9-1.8-3.9-5.3v-25.9c0-3.6,1.3-5.3,3.9-5.3s3.9,1.8,3.9,5.3v2.4h7.4v-2.4c0-3.7-.9-6.6-2.6-8.9-1.7-2.3-4.6-3.4-8.6-3.4h0v-.2Z"/>
  <path class="st0" d="M127.1,23.2c-2,1.9-4.3,5.1-5.7,7,0,.3-1.7,2.3-.7,2,2.1-1.4,4.1-3.4,5.9-5.1.5-1,.9-2.2,1.4-3.1h0c1-2.4.3-2.1-1-.8h0Z"/>
  <path class="st0" d="M389.5,37.3c-1.2-1.3-2.8-2.8-4.8-4.4-2.2-1.9-3.7-3.4-4.8-4.7-1-1.2-1.5-2.6-1.5-4v-1c0-3.6,1.3-5.3,3.9-5.3s3.9,1.8,3.9,5.3v2.4h7.4v-2.4c0-3.7-.9-6.6-2.6-8.9-1.7-2.3-4.6-3.4-8.6-3.4s-7,1.2-8.9,3.5c-1.9,2.3-2.8,5.3-2.8,8.9v1c0,2.1.4,4,1.3,5.8s1.9,3.2,3.1,4.5,2.8,2.8,4.8,4.5c2.2,1.9,3.9,3.5,5,4.8s1.7,2.8,1.7,4.3v1c0,3.6-1.3,5.3-3.9,5.3s-3.9-1.8-3.9-5.3v-2.4h-7.4v2.4c0,3.6.9,6.5,2.8,8.9,1.9,2.3,4.7,3.5,8.6,3.5s6.9-1.1,8.6-3.4c1.7-2.3,2.6-5.3,2.6-8.9v-1c0-2.3-.4-4.3-1.3-6.1s-1.9-3.4-3.2-4.7h0v-.2Z"/>
  <path class="st0" d="M355.5,10.7c-4.1,0-7.1,1.2-9,3.5s-2.8,5.3-2.8,8.9v25.9c0,3.6,1,6.6,2.8,8.9,1.9,2.3,4.9,3.5,9,3.5s7-1.1,8.9-3.4c1.9-2.3,2.8-5.3,2.8-8.9v-26c0-3.6-.9-6.6-2.8-8.9-1.9-2.3-4.8-3.5-8.9-3.5ZM359.4,49c0,1.8-.3,3.2-1,4-.7.9-1.7,1.3-3,1.3s-2.4-.4-3-1.3c-.7-.9-1-2.2-1-4v-25.9c0-1.8.3-3.2,1-4,.7-.9,1.7-1.3,3-1.3s2.4.4,3,1.3c.7.9,1,2.2,1,4v25.9h0Z"/>
  <path class="st0" d="M322.9,11.4l-6.7,49.3h7.7l1.3-11.8h6.6l1.3,11.8h8.4l-6.7-49.3h-12,.1ZM326,41.9l2.5-23.9,2.5,23.9h-5.1.1Z"/>
  <polygon class="st0" points="305 31.9 296.7 31.9 296.7 11.4 288.9 11.4 288.9 60.7 296.7 60.7 296.7 38.9 305 38.9 305 60.7 312.7 60.7 312.7 11.4 305 11.4 305 31.9"/>
  <g>
    <path class="st1" d="M355.4,17.8c-1.4,0-2.4.4-3,1.3-.7.9-1,2.2-1,4v25.9c0,1.8.3,3.2,1,4,.7.9,1.7,1.3,3,1.3s2.4-.4,3-1.3c.7-.9,1-2.2,1-4v-25.9c0-1.8-.3-3.2-1-4-.7-.9-1.7-1.3-3-1.3Z"/>
    <polygon class="st1" points="326 41.9 331.1 41.9 328.5 18 326 41.9"/>
    <path class="st1" d="M251.5,0v27.3c-.7.1-1.5.5-2.1.8-1.7.8-3.3,1.3-4.7,2.3-.2,0-.5.3-.6.2v-.4c.3-1,.8-2,1.2-2.9,1.4-3.2,2.4-6.5,4.2-9.3.4-.6.2-1.1-.4-1.6-.5-.5-1.4-1.1-2.1-1.2-2.2-.6-3,2.2-4.2,3.6-.2.2-.3.2-.5,0-.3-1.1-.7-2.4-1.4-3.3-.9-1.1-2.4-2.3-3.9-2.5-1.4.2-2.3,1.3-3.4,2.2-1.3,1.1-2.4,2.2-3.5,3.5-1.1,1.5-2.2,3.8-3.1,5.1-.7,1-1.5,2.6-2.4,3.7-1.9,1.7-4.2,3.3-6.4,4.6-1.7.8-5.6,2.5-7.3,1.1-.2-.2-.2-.5-.2-.9.1-.9.3-2,.7-3.4.9-4.6,3.5-9.4-2.3-12.1-1.1-.6-2.2-.9-3.3-.5-.9.3-1.1.7-1.8,1.3-1.4,1.3-2.7,2.9-4,4.3-.2.2-.4.3-.2-.1.6-1,1.6-2.6,0-3.3-1-.4-1.9-1-2.9-1.3-.4,0-.6,0-.8.3-1.2,3.2-3.1,6.3-4.8,9.1-3.2,3.3-7,6-10.7,8.8-.9.5-1.9,1.6-2.9,1.7-.7-.3.3-2,.5-2.5,1-2.3,1.8-4.4,3.1-6.6.8-1.8,1.6-3.1,2.3-5.1.6-1.2-.3-2.4-1.3-3-.5-.3-1.8-1.2-2.4-.6-.3.6-.5,1.3-1,2.1-.7,1.2-1.9,2.9-2.4,4.1-.3.6-.5,1.3-.9,1.9-.8.8-2,1.1-3,1.6-1.1.4-2.2,1.1-3.3,1.8-.2,0-.3.1-.3,0,0-.9.7-2,1-2.9,1.2-2.7,2.1-5.5,3.4-8,.4-1.1,2-2.2.6-3.3-.8-.7-1.9-1.4-3-1.3-1.6.3-2.2,2.5-3.2,3.6-.4.5-.6-.2-.6-.6-.5-2.2-1.8-3.8-3.7-4.8-.5-.3-1.2-.6-1.8-.4-2.5,1.3-4.6,3.5-6.5,5.6-1.1,1.5-2.2,3.9-3.4,5.5-.9,1.6-2,3.2-3.8,4-3.2,1.8-7.7,5.3-11,5.5-1-.3-.2-2,0-2.7.4-1.3,1.5-3.4,2.1-4.8.8-1.6,1.1-3.1-.5-4.4-.9-.8-2.4-2.1-3.6-1.6-.4.1-.8.5-1.2.3-.6-.3-.9-1.1-1.3-1.5-1.1-1.2-2.6-2.4-4.5-2.9-1.9-.3-3.7,1.8-5.3,3-1,.9-1.5,1.8-2.4,2.8-1.3,1.5-2.4,3.2-3.4,4.9-1.7,2.2-4.4,3.8-6.7,5.3-2,.9-4.5,2-6.6,1.5-1.2-.3-.8-1.6-.6-2.5.4-3.5,2.6-7.6,1.5-11.1-.5-1.2-1.7-2.2-3.3-3.1-1.1-.6-2.1-.9-3.3-.5-.8.3-1.2.7-1.8,1.3-1.4,1.3-2.6,2.8-3.8,4.2-.7.8-.4.1,0-.5.4-.8.9-1.6.3-2.3-.9-.8-2.4-1.4-3.5-1.8-.5-.1-.8.2-.9.6-.3.8-.8,1.8-1.2,2.7-.8,1.6-1.6,3-2.5,4.4-.5,1-1,2-2.1,2.5-1.7.8-12.6,8.7-12.7,5.4.4-3.1,2.6-5.7,3.2-8.8,0-.7-.2-1.4-.8-2-.8-.8-2-1.8-3.2-2-.5,0-1,.3-1.4.4-.9.3-1.3-1-1.8-1.6-1.3-1.3-3.5-3.3-5.7-2.8-2.3,1.1-4.7,3.3-6.2,5.5-1.2,1.5-2.4,3.1-3.3,4.6-2,2.5-4.4,4.4-7.3,6.3-2.3,1.5-2.4.2-1.8-2,.2-1.2.8-2.2.6-3.3-.8-1.9-3.8-3.9-5.8-4.3-2.1-.3-4.3.7-6,1.7-1,.7-1.6,1.3-2.6,1.8-.4.2-.3.2-.5.2s-.4.1-.6,0c-.5-.3,0-1.3.1-1.8.9-2.8,2.8-6.4,0-8.7-.6-.5-1.3-1-2.2-1.3-.9-.4-1.5-.5-2.3,0-3.2,2.7-6.3,6.5-9.1,9.3-.8.8.1-.6.2-.8.6-1,1.2-2,1.8-3.1.3-.5.6-1.1.3-1.7-.3-.7-1-1.3-1.7-1.8-.6-.5-1.3-.9-2-.7s-1,.9-1.4,1.5c-1,1.5-1.7,3.1-2.5,4.7-2.1,3.5-4.2,7.2-6.1,10.8-.3,1.2-1.6,2.6-1.6,4.1s3.6,5.2,5.1,4.1c1.1-1.1,1.7-2.3,2.9-3.5,3.9-4.6,7.6-9.7,12.2-13.6,1.2-.9.7,0,.3,1.3-1.1,3,1,6,3.4,7.6,1.9,1.4,4.4,0,6.2-1.3,2.3-1.4,4.5-3.2,6.7-4.3.5,0,.3.4,0,1.1-.4,1.1-.7,2.2-1.1,3.4-.3,1-.5,1.9,0,2.8,1,1.7,2.9,3.3,4.9,3.6,2.4.4,4-1.4,5.7-2.6.6-.5,1.1-1,1.5-1s.5.5.7,1.2c.9,2.1,3.6,4.9,5.9,3.7,3.2-2,5.7-4.7,8.4-7.2.8-.6,1.7-2.2,2.1-.4.6,2.9,2.6,5.7,5.5,6.8,1.9.5,4.1-.7,5.8-1.7.7-.4,1.3-1.1,1.8-.4.8,1.6,1.4,3.4,3.3,4,1.1.4,1.8-1,2.4-1.7,4-5.1,9.1-11.6,14.4-15.9,1.8-1.4,1.5-.5.9,1s-.6,2.9-.8,4.7c0,1.2-.2,2.2.2,3.4,2,4.9,4.6,7,9.8,6,2.2-.5,4.1-2.4,6.1-3.5.4,0,.5.4.8,1.1.9,2.1,3.6,5.1,6,3.8,3.2-2,5.7-4.7,8.4-7.2.5-.4,1.6-2.1,2-.8.6,3,2.3,5.8,5.2,7.1,2.6,1,5.5-1.1,7.7-2.6.4-.3.8-.5.9-.4.3,0-.1,1-.3,1.7-1,2.8,1.3,6.7,4.4,6.7s2.2-.9,3.1-1.8c1.1-1.1,2.2-2.1,3.2-3.2,1.8-1.9,3.5-3.9,5.3-5.6.2,0,.3-.2.3,0,0,.4-.6,1.8-.9,2.4-.4.9-1,1.4-1.8,2.3-6.4,7-10.7,13.1-14.7,20.5-.4.9-.9,1.2-1.3,1.9-.5,1.4.2,2,1.5,2.9,4.4,3.6,11,1.4,13.6-3.2,1.7-3.3,3-6.6,4-10.1.7-1.8,1.7-4.7,3.1-8.6.5-1.8,2.1-2.8,3.5-4,1.3-1,2.7-2.2,4.2-2.9.3,0,.4,0,.4.5-.6,3.3,1.9,6.8,5,7.7,1.2.2,2.4-.7,3.7-1.3,1.5-.9,2.9-2.1,4.1-3.1.3-.2.5-.4.8-.2.7,1,2,2.8,3.4,2.6.7-.2,1.3-1.2,1.8-1.8,4-5.2,9.3-11.9,14.7-16.1,1.5-1.2,1,.1.6,1.2-.6,1.4-.7,3.1-.8,4.7-.5,2.7.7,5.2,2.4,7.3,1.6,2.4,5,2.6,7.7,2.1,1.1-.3,2.4-1.1,3.5-1.7.8-.3,0,.8,0,1.7v.4c-.3,3.3,3.8,7.3,6.7,4.6,3.2-3,6.3-6.4,9.2-9.5,0,0,.2-.2.3-.2.2,0,.3-.2.3,0,0,.5-.7,1.9-1,2.6-.6,1.2-1.9,2.2-2.9,3.3-3.5,3.9-6.9,8.5-8.8,11.4-1.8,2.6-3.5,5.7-4.9,8.4-.3.6-.8.8-1,1.4-.2.5-.2.8,0,1.3.4.9,1.9,1.8,2.8,2.4,3.7,2,8.6.6,11.2-2.6,1.7-1.8,2.5-4.6,3.5-6.7,1.7-4.8,2.3-6.9,4.5-12.9.2-.6.5-1.4.8-1.9,2-2.3,4.5-4.1,7.2-5.7,1.3-.8,2.7-1.5,3.9-2.2v39.8h151.5V0h-151.7ZM61.5,23.9h0c-.5,1.1-.9,2.3-1.4,3.2-1.8,1.7-3.8,3.7-5.9,5.1-1,.3.6-1.7.7-2,1.4-1.9,3.6-5.1,5.7-7,1.4-1.3,2-1.6,1,.6h0ZM128.2,23.9h0c-.5,1.1-.9,2.3-1.4,3.2-1.8,1.7-3.8,3.7-5.9,5.1-1,.3.6-1.7.7-2,1.4-1.9,3.6-5.1,5.7-7,1.4-1.3,2-1.6,1,.6h0ZM157.4,46.6c-1.4,3.6-3.1,7.6-4.9,10.8h0c-.8,1.5-2.4,3.7-4,3.7-.9-.3,2.6-5.7,3.8-7.6,1.8-2.8,3.5-5.1,5.1-7.1.2-.3.3-.2.2,0h-.2ZM164,19.1h0c-.1,1.4-.1,3.2-.5,4.6-.3,1.3-1.3,2.3-2.2,3.2-.8.9-1.9,1.9-2.6,2.7-1.3,1.3-2.6,2.6-3.9,3.8-.6.5-1.1.9-1.8,1.4-.6.4-.9.5-1.2.9-.5.6-1.7,1.5-1,0,2.2-4.3,6.7-12.6,11.2-16.8,1-.9,2.1-2.1,1.9.1h.1ZM232.2,46.6c-1.4,3.6-3.1,7.6-4.9,10.8h0c-.8,1.5-2.4,3.7-4,3.7-.9-.3,2.6-5.7,3.8-7.6,1.8-2.8,3.5-5.1,5.1-7.1.2-.3.3-.2.2,0h-.2ZM238.8,19.2h0c0,.9-.5,2.1-.5,2.8s-.3,2-.8,2.9c-.9,1.8-2.8,3.3-4,4.7-1.3,1.3-2.6,2.6-3.9,3.8-.6.5-1.1.9-1.8,1.4-.6.4-.9.5-1.2.9-.5.6-1.7,1.5-1,0,2.2-4.3,6.8-12.6,11.2-16.8,1-.9,2.1-2.1,1.9.2h.1ZM284,25.5h-7.4v-2.4c0-3.6-1.3-5.3-3.9-5.3s-3.9,1.8-3.9,5.3v25.9c0,3.6,1.3,5.3,3.9,5.3s3.9-1.8,3.9-5.3v-2.4h7.4v2.4c0,3.7-.9,6.6-2.6,8.9-1.7,2.3-4.6,3.4-8.6,3.4s-7-1.2-8.9-3.5-2.8-5.3-2.8-8.9v-25.9c0-3.6.9-6.5,2.8-8.9,1.9-2.3,4.8-3.5,8.9-3.5s6.9,1.2,8.6,3.4c1.7,2.3,2.6,5.3,2.6,8.9v2.4h0v.2ZM312.7,60.7h-7.7v-21.8h-8.3v21.8h-7.7V11.4h7.7v20.4h8.3V11.4h7.7v49.3ZM333.1,60.7l-1.3-11.8h-6.6l-1.3,11.8h-7.7l6.7-49.3h12l6.7,49.3h-8.5ZM367.2,49h0c0,3.7-.9,6.6-2.8,8.9-1.9,2.3-4.8,3.4-8.9,3.4s-7.1-1.2-9-3.5-2.8-5.3-2.8-8.9v-25.9c0-3.6,1-6.6,2.8-8.9,1.9-2.3,4.9-3.5,9-3.5s7,1.2,8.9,3.5c1.9,2.3,2.8,5.3,2.8,8.9v25.9h0ZM393.9,49c0,3.7-.9,6.6-2.6,8.9-1.7,2.3-4.6,3.4-8.6,3.4s-6.7-1.2-8.6-3.5-2.8-5.3-2.8-8.9v-2.4h7.4v2.4c0,3.6,1.3,5.3,3.9,5.3s3.9-1.8,3.9-5.3v-1c0-1.5-.6-3-1.7-4.3s-2.8-2.9-5-4.8c-2-1.7-3.6-3.2-4.8-4.5-1.2-1.3-2.3-2.8-3.1-4.5-.9-1.7-1.3-3.7-1.3-5.8v-1c0-3.6.9-6.5,2.8-8.9,1.9-2.3,4.8-3.5,8.9-3.5s6.9,1.2,8.6,3.4c1.7,2.3,2.6,5.3,2.6,8.9v2.4h-7.4v-2.4c0-3.6-1.3-5.3-3.9-5.3s-3.9,1.8-3.9,5.3v1c0,1.5.5,2.8,1.5,4s2.6,2.8,4.8,4.7c1.9,1.6,3.5,3.1,4.8,4.4,1.2,1.3,2.3,2.9,3.2,4.7.9,1.8,1.3,3.8,1.3,6.1v1h0v.2Z"/>
  </g>
  <path class="st1" d="M182.2,17.3h.1c.6.5,1.3.5,1.8.9.3.2.9.3,1.1,0,0-.1.2-.4.4-.6.7-1.1,1.4-2.5,2.1-3.6.7-1,1.2-1.8-.3-2.7-1.3-.7-2.8-1.4-3.8,0-1,1.6-3.8,4.5-1.5,6.1h0Z"/>
</svg>